<svg xmlns="http://www.w3.org/2000/svg" viewBox="0 0 277.75 71.92"><defs><style>.cls-1{fill:#bddaee;}.cls-2{fill:#bcdaee;}.cls-3{fill:#8ec5e5;}.cls-4{fill:#6e96a6;}.cls-5{fill:#20495a;}</style></defs><title>Asset 11</title><g id="Layer_2" data-name="Layer 2"><g id="Layer_1-2" data-name="Layer 1"><path class="cls-1" d="M58.77,8.78V30.5H55.55V8.78Z"/><path class="cls-1" d="M81.8,24.25c-.94,3.75-3.75,6.53-8.75,6.53-6.56,0-9.84-4.9-9.84-11.06,0-5.91,3.28-11.25,10-11.25,5.25,0,8,3,8.62,6.66H78.58a5.23,5.23,0,0,0-5.53-4c-4.62,0-6.47,4.18-6.47,8.5,0,4.15,1.75,8.5,6.6,8.5a5.36,5.36,0,0,0,5.4-3.88Z"/><path class="cls-1" d="M105.24,19.53c0,6-3.41,11.28-10.28,11.28-6.47,0-10-4.93-10-11.15S88.61,8.47,95.21,8.47C101.36,8.47,105.24,13,105.24,19.53Zm-16.94,0c0,4.6,2.28,8.54,6.78,8.54,4.88,0,6.78-4,6.78-8.5s-2.15-8.41-6.78-8.41S88.3,15,88.3,19.56Z"/><path class="cls-1" d="M109.67,30.5V8.78h4.19c3,5.07,9.47,15.47,10.66,17.82h0c-.22-2.69-.19-6.16-.19-9.72V8.78h3V30.5h-3.94c-2.78-4.62-9.53-15.94-10.84-18.4h-.06c.15,2.37.18,6.18.18,10.12V30.5Z"/><path class="cls-2" d="M26.13,0A36.32,36.32,0,0,1,40.86,16.92c5.37,12.73,1.69,17.5-3,19,2.93-4,3.11-10-8.72-17.2a34.85,34.85,0,0,0-5.83-2.82A35.7,35.7,0,0,1,26.13,0Z"/><path class="cls-3" d="M23.26,15.94a34.85,34.85,0,0,1,5.83,2.82C40.92,25.91,40.74,31.93,37.81,36c0-4.33-2.57-8.66-12.31-8.94a44,44,0,0,1-1.35-4.68A36,36,0,0,1,23.26,15.94Z"/><path class="cls-2" d="M23.26,15.94a36,36,0,0,0,.89,6.4A44,44,0,0,0,25.5,27a39.53,39.53,0,0,0-4.86.16,34.75,34.75,0,0,0-6.36,1.14A35.8,35.8,0,0,1,7.22,13.74,35.67,35.67,0,0,1,23.26,15.94Z"/><path class="cls-4" d="M25.5,27c9.74.28,12.31,4.61,12.31,8.94C36,33.44,33.07,31.7,28.6,33A20.82,20.82,0,0,1,25.5,27Z"/><path class="cls-3" d="M25.5,27A20.82,20.82,0,0,0,28.6,33a20.84,20.84,0,0,0-6,3,42.42,42.42,0,0,1-3.84-3,34.61,34.61,0,0,1-4.47-4.65,34.75,34.75,0,0,1,6.36-1.14A39.53,39.53,0,0,1,25.5,27Z"/><path class="cls-2" d="M14.28,28.32A34.61,34.61,0,0,0,18.75,33a42.42,42.42,0,0,0,3.84,3,42.42,42.42,0,0,0-3.84,3,35.4,35.4,0,0,0-4.48,4.66A35.78,35.78,0,0,1,0,36,35.7,35.7,0,0,1,14.28,28.32Z"/><path class="cls-5" d="M37.81,36c-1.83,2.52-4.73,4.26-9.21,3a21.11,21.11,0,0,1-6-3,20.84,20.84,0,0,1,6-3C33.07,31.7,36,33.44,37.81,36Z"/><path class="cls-3" d="M22.59,36a21.11,21.11,0,0,0,6,3,20.82,20.82,0,0,0-3.1,5.95,41.46,41.46,0,0,1-4.86-.15,35.74,35.74,0,0,1-6.37-1.14A35.4,35.4,0,0,1,18.75,39,42.42,42.42,0,0,1,22.59,36Z"/><path class="cls-2" d="M20.64,44.75a41.46,41.46,0,0,0,4.86.15,44,44,0,0,0-1.35,4.68,34.93,34.93,0,0,0-.88,6.4,35.81,35.81,0,0,1-16,2.21,35.86,35.86,0,0,1,7.05-14.58A35.74,35.74,0,0,0,20.64,44.75Z"/><path class="cls-4" d="M37.81,36c0,4.33-2.57,8.66-12.31,8.94A20.82,20.82,0,0,1,28.6,39C33.08,40.22,36,38.48,37.81,36Z"/><path class="cls-3" d="M37.81,36c2.93,4,3.1,10.06-8.73,17.21A35,35,0,0,1,23.27,56a34.93,34.93,0,0,1,.88-6.4A44,44,0,0,1,25.5,44.9C35.24,44.62,37.81,40.29,37.81,36Z"/><path class="cls-2" d="M37.81,36c4.74,1.54,8.42,6.31,3,19A36.26,36.26,0,0,1,26.13,71.92,35.78,35.78,0,0,1,23.27,56a35,35,0,0,0,5.81-2.81C40.91,46,40.74,40,37.81,36Z"/><path class="cls-1" d="M60.52,41H52.74v-.56H69V41H61.15V62.45h-.63Z"/><path class="cls-1" d="M85.05,51.08h-12V61.89h13l-.12.56H72.46v-22H85.68V41H73.08v9.5h12Z"/><path class="cls-1" d="M106.83,56.64c-1,3-3.16,6.12-8.34,6.12-6.38,0-9.47-5-9.47-11.18s3.09-11.44,9.65-11.44a7.88,7.88,0,0,1,8.13,6.44h-.66a7.35,7.35,0,0,0-7.47-5.85c-6.31,0-9,5.07-9,10.85,0,5.47,2.72,10.59,8.85,10.59a7.56,7.56,0,0,0,7.65-5.53Z"/><path class="cls-1" d="M111.73,40.45h.63v10h14.5v-10h.62v22h-.62V51h-14.5V62.45h-.63Z"/><path class="cls-1" d="M133.83,62.45v-22h1c3.81,5.6,13.31,19.56,14.47,21.35l.06.09c-.1-.59-.1-6.84-.1-10.41v-11h.63v22H149c-3.65-5.4-13.12-19.37-14.56-21.47l-.06-.09c.15,2.94.09,6.25.09,10.28V62.45Z"/><path class="cls-1" d="M174.2,51.26c0,6.25-3.22,11.5-9.81,11.5-6.07,0-9.63-5-9.63-11.31,0-6.06,3.44-11.31,9.81-11.31C170.54,40.14,174.2,45.11,174.2,51.26Zm-18.78.13c0,5.62,3,10.81,9,10.81s9.15-4.84,9.15-10.9c0-5.75-3.31-10.6-9-10.6S155.42,45.45,155.42,51.39Z"/><path class="cls-1" d="M179.07,40.45h.63V61.89h12.43l-.21.56H179.07Z"/><path class="cls-1" d="M212.48,51.26c0,6.25-3.22,11.5-9.81,11.5-6.07,0-9.63-5-9.63-11.31,0-6.06,3.44-11.31,9.81-11.31C208.82,40.14,212.48,45.11,212.48,51.26Zm-18.78.13c0,5.62,3,10.81,9,10.81s9.15-4.84,9.15-10.9c0-5.75-3.31-10.6-9-10.6S193.7,45.45,193.7,51.39Z"/><path class="cls-1" d="M234,62.45h-.57c0-.62,0-1.47-.06-5.15-1.25,3.75-3.84,5.46-7.9,5.46-6.5,0-9.38-5.12-9.38-11.09,0-6.12,3.13-11.53,9.66-11.53,4.84,0,7.47,2.53,8.22,5.94h-.63c-.87-3.32-3.37-5.38-7.62-5.38-6,0-9,5-9,10.88,0,5.56,2.56,10.62,8.78,10.62,5.31,0,7.84-3.53,7.84-8.56V52h-7.87v-.56H234Z"/><path class="cls-1" d="M240.32,40.45v22h-.63v-22Z"/><path class="cls-1" d="M259.25,51.08h-12V61.89h13l-.13.56H246.66v-22h13.22V41H247.29v9.5h12Z"/><path class="cls-1" d="M263.69,56.73c.66,3.57,3.22,5.47,7,5.47,3.94,0,6.44-2,6.44-5.22,0-3.09-1.35-4.56-6.44-5.93-4.44-1.19-6.53-2.47-6.53-5.72s2.47-5.19,6.43-5.19c4.82,0,6.44,2.87,6.79,5.31h-.63c-.56-2.9-2.53-4.75-6.19-4.75-3.4,0-5.75,1.53-5.75,4.56,0,2.85,1.69,4.07,5.94,5.16,5.84,1.5,7,3.44,7,6.5,0,3.59-2.69,5.84-7.12,5.84s-7-2.4-7.6-6Z"/></g></g></svg>